<svg viewBox="0 0 90 90" fill="none" xmlns="http://www.w3.org/2000/svg">
<path d="M66.5833 44.5C66.5833 32.31 56.69 22.4167 44.5 22.4167C32.31 22.4167 22.4167 32.31 22.4167 44.5C22.4167 55.1884 30.0133 64.0879 40.0833 66.1417V51.125H35.6667V44.5H40.0833V38.9792C40.0833 34.7171 43.5504 31.25 47.8125 31.25H53.3333V37.875H48.9167C47.7021 37.875 46.7083 38.8688 46.7083 40.0834V44.5H53.3333V51.125H46.7083V66.4729C57.8604 65.3688 66.5833 55.9613 66.5833 44.5Z" fill="#7E5EFF"/>
<rect x="27" y="56" width="34" height="34" rx="17" fill="#FFB800"/>
<path d="M40.5466 80.7675C42.9457 81.8319 45.8032 81.7741 48.2502 80.3613C52.3157 78.0141 53.7086 72.8156 51.3614 68.7501L51.1114 68.3171M36.6385 77.2502C34.2913 73.1847 35.6842 67.9862 39.7497 65.639C42.1967 64.2262 45.0542 64.1684 47.4533 65.2328M34.4934 77.3338L37.2255 78.0659L37.9575 75.3338M50.0426 70.6659L50.7747 67.9338L53.5067 68.6659" stroke="black" stroke-width="2" stroke-linecap="round" stroke-linejoin="round"/>
<rect x="5.5" y="5.5" width="79" height="79" rx="30.5" stroke="url(#paint0_linear_1_281)" stroke-opacity="0.3" stroke-width="11"/>
<defs>
<linearGradient id="paint0_linear_1_281" x1="45" y1="0" x2="45" y2="90" gradientUnits="userSpaceOnUse">
<stop stop-color="white"/>
<stop offset="1" stop-color="white" stop-opacity="0"/>
</linearGradient>
</defs>
</svg>
