<svg viewBox="0 0 90 90" fill="none" xmlns="http://www.w3.org/2000/svg">
<rect x="5.5" y="5.5" width="79" height="79" rx="30.5" stroke="url(#paint0_linear_103_81)" stroke-opacity="0.3" stroke-width="11"/>
<path d="M69.4375 33.25L64.0938 34.1406L67.6562 29.6875L61.4219 31.4687C53.4062 22.5625 40.9375 32.3594 44.5 40.375C30.25 40.375 23.125 29.6875 23.125 29.6875C23.125 29.6875 17.7812 37.7031 26.6875 43.9375L21.3438 42.1562C21.3438 47.5 24.9062 51.0625 31.1406 52.8437H24.9062C28.4688 59.9687 34.7031 59.9687 34.7031 59.9687C34.7031 59.9687 29.3594 64.4219 19.5625 64.4219C48.9531 78.6719 66.7656 51.9531 64.0938 37.7031L69.4375 33.25Z" fill="#7E5EFF"/>
<rect x="27" y="56" width="34" height="34" rx="17" fill="#FFB800"/>
<path d="M40.5466 80.7675C42.9457 81.8319 45.8032 81.7741 48.2502 80.3613C52.3157 78.0141 53.7086 72.8156 51.3614 68.7501L51.1114 68.3171M36.6385 77.2502C34.2913 73.1847 35.6842 67.9862 39.7497 65.639C42.1967 64.2262 45.0542 64.1684 47.4533 65.2328M34.4934 77.3338L37.2255 78.0659L37.9575 75.3338M50.0426 70.6659L50.7747 67.9338L53.5067 68.6659" stroke="black" stroke-width="2" stroke-linecap="round" stroke-linejoin="round"/>
<defs>
<linearGradient id="paint0_linear_103_81" x1="45" y1="0" x2="45" y2="90" gradientUnits="userSpaceOnUse">
<stop stop-color="white"/>
<stop offset="1" stop-color="white" stop-opacity="0"/>
</linearGradient>
</defs>
</svg>
