<svg viewBox="0 0 90 93" fill="none" xmlns="http://www.w3.org/2000/svg">
<rect x="5.5" y="5.5" width="79" height="79" rx="30.5" stroke="url(#paint0_linear_138_63)" stroke-opacity="0.3" stroke-width="11"/>
<path fill-rule="evenodd" clip-rule="evenodd" d="M67.1146 36.0084C66.98 35.9999 66.8335 36 66.6816 36L66.6437 36H60.686C55.7753 36 51.5734 39.8655 51.5734 44.9063C51.5734 49.9471 55.7753 53.8125 60.686 53.8125H66.6437L66.6816 53.8125C66.8335 53.8126 66.98 53.8126 67.1146 53.8041C69.1093 53.6782 70.8733 52.1173 71.0217 49.937C71.0314 49.7941 71.0313 49.6399 71.0312 49.4971L71.0312 49.4584V40.3542L71.0312 40.3154C71.0313 40.1726 71.0314 40.0185 71.0217 39.8755C70.8733 37.6953 69.1093 36.1343 67.1146 36.0084ZM60.1577 47.2812C61.422 47.2812 62.4469 46.2179 62.4469 44.9062C62.4469 43.5946 61.422 42.5312 60.1577 42.5312C58.8935 42.5312 57.8686 43.5946 57.8686 44.9062C57.8686 46.2179 58.8935 47.2812 60.1577 47.2812Z" fill="#7E5EFF"/>
<path fill-rule="evenodd" clip-rule="evenodd" d="M66.6801 57.375C67.0342 57.3658 67.3022 57.6938 67.2061 58.0348C66.7293 59.7268 65.9726 61.169 64.7583 62.3833C62.9809 64.1607 60.7272 64.9494 57.9427 65.3238C55.237 65.6876 51.7799 65.6875 47.4152 65.6875H42.3973C38.0326 65.6875 34.5755 65.6876 31.8698 65.3238C29.0853 64.9494 26.8316 64.1607 25.0542 62.3833C23.2768 60.6059 22.4881 58.3522 22.1137 55.5677C21.7499 52.862 21.75 49.4049 21.75 45.0402V44.7723C21.75 40.4076 21.7499 36.9505 22.1137 34.2448C22.4881 31.4603 23.2768 29.2066 25.0542 27.4292C26.8316 25.6518 29.0853 24.8631 31.8698 24.4887C34.5755 24.1249 38.0326 24.125 42.3973 24.125L47.4152 24.125C51.7799 24.125 55.237 24.1249 57.9427 24.4887C60.7272 24.8631 62.9809 25.6518 64.7583 27.4292C65.9726 28.6435 66.7293 30.0856 67.2061 31.7777C67.3022 32.1187 67.0341 32.4467 66.68 32.4375L60.6858 32.4375C53.9488 32.4375 48.0107 37.7597 48.0107 44.9063C48.0107 52.0529 53.9488 57.375 60.6858 57.375L66.6801 57.375ZM33.625 53.8125C32.6412 53.8125 31.8438 53.015 31.8438 52.0312V37.7812C31.8438 36.7975 32.6412 36 33.625 36C34.6088 36 35.4062 36.7975 35.4062 37.7812V52.0312C35.4062 53.015 34.6088 53.8125 33.625 53.8125Z" fill="#7E5EFF"/>
<rect x="28" y="59" width="34" height="34" rx="17" fill="#00FFD1"/>
<path d="M41.5466 83.7675C43.9457 84.8319 46.8032 84.7741 49.2502 83.3613C53.3157 81.0141 54.7086 75.8156 52.3614 71.7501L52.1114 71.3171M37.6385 80.2502C35.2913 76.1847 36.6842 70.9862 40.7497 68.639C43.1967 67.2262 46.0541 67.1684 48.4533 68.2328M35.4934 80.3338L38.2254 81.0659L38.9575 78.3338M51.0426 73.6659L51.7747 70.9338L54.5067 71.6659" stroke="black" stroke-width="2" stroke-linecap="round" stroke-linejoin="round"/>
<defs>
<linearGradient id="paint0_linear_138_63" x1="45" y1="0" x2="45" y2="90" gradientUnits="userSpaceOnUse">
<stop stop-color="white"/>
<stop offset="1" stop-color="white" stop-opacity="0"/>
</linearGradient>
</defs>
</svg>
