<?xml version="1.0" encoding="utf-8"?>
<!DOCTYPE svg PUBLIC "-//W3C//DTD SVG 1.1//EN" "http://www.w3.org/Graphics/SVG/1.1/DTD/svg11.dtd">
<svg viewBox="0 0 185 33" fill="none" xmlns="http://www.w3.org/2000/svg">
<path d="M16.7675 33C26.0307 33 33.5351 25.6192 33.5351 16.5C33.5351 7.38083 26.0307 0 16.7675 0C7.50436 0 0 7.38083 0 16.5C0 25.6192 7.50436 33 16.7675 33Z" fill="url(#paint0_linear_5_1957)"/>
<path d="M11.3154 11V23.3679H21.7805L11.3154 11Z" fill="url(#paint1_linear_5_1957)"/>
<path d="M1.14355 23.3679H11.6086V11L1.14355 23.3679Z" fill="white"/>
<path d="M3.40039 26.3886C4.36775 27.6425 5.48168 28.7539 6.74217 29.6943H26.8515C28.112 28.7539 29.2552 27.6425 30.1933 26.3886H3.40039Z" fill="#FC9965"/>
<path d="M6.80078 29.6943C9.5856 31.7746 13.074 33 16.8554 33C20.6369 33 24.1253 31.7746 26.9101 29.6943H6.80078Z" fill="#FF2D55"/>
<path d="M22.6304 17.5829V26.6736H30.3106L22.6304 17.5829Z" fill="url(#paint2_linear_5_1957)"/>
<path d="M22.2202 23.1114H1.14355C1.6712 24.2798 2.31611 25.3912 3.10759 26.4171H22.2496L22.2202 23.1114Z" fill="#FFBC5B"/>
<path d="M14.7158 26.6736H22.3961V17.5829L14.7158 26.6736Z" fill="white"/>
<path d="M22.3081 14.8471C24.6239 14.8471 26.5 12.9948 26.5 10.715C26.5 8.43522 24.6239 6.58289 22.3081 6.58289C19.9923 6.58289 18.1162 8.43522 18.1162 10.715C18.1162 12.9948 19.9923 14.8471 22.3081 14.8471Z" fill="#FFC95B"/>
<path d="M12.2825 8.52071C13.4257 8.52071 14.3637 7.60879 14.3637 6.46889C14.3637 5.329 13.4257 4.41708 12.2825 4.41708C11.1392 4.41708 10.2012 5.329 10.2012 6.46889C10.2012 7.60879 11.1392 8.52071 12.2825 8.52071Z" fill="#FFC95B"/>
<path d="M54.3187 9.94558C55.7844 9.94558 57.0449 10.2306 58.1295 10.772C59.2435 11.3135 60.0936 12.1114 60.6798 13.1373C61.2954 14.1632 61.5886 15.3316 61.5886 16.671C61.5886 18.0104 61.2954 19.2072 60.6798 20.2046C60.0936 21.2021 59.2435 21.9715 58.1295 22.5414C57.0449 23.0829 55.7551 23.3679 54.3187 23.3679H49.4819V9.91708H54.3187V9.94558ZM54.2015 21.0881C55.6672 21.0881 56.7811 20.6891 57.5726 19.9197C58.364 19.1502 58.7744 18.0673 58.7744 16.671C58.7744 15.2746 58.364 14.1917 57.5726 13.3938C56.7811 12.5958 55.6672 12.1969 54.2015 12.1969H52.2374V21.0596H54.2015V21.0881Z" fill="black"/>
<path d="M73.8711 17.8109C73.8711 18.2099 73.8418 18.5518 73.7832 18.8368H65.7512C65.8098 19.6062 66.1029 20.2047 66.572 20.6606C67.0703 21.0881 67.6566 21.3161 68.3601 21.3161C69.3861 21.3161 70.1189 20.8886 70.5586 20.0337H73.5487C73.2262 21.0596 72.6106 21.9145 71.7312 22.57C70.8225 23.2254 69.7379 23.5389 68.4187 23.5389C67.3634 23.5389 66.4254 23.3109 65.5753 22.8549C64.7545 22.399 64.0803 21.7435 63.6112 20.9171C63.1422 20.0907 62.9077 19.1218 62.9077 18.0389C62.9077 16.9275 63.1422 15.9586 63.6112 15.1321C64.0803 14.3057 64.7252 13.6503 65.546 13.1943C66.3668 12.7384 67.3341 12.5104 68.4187 12.5104C69.474 12.5104 70.3828 12.7384 71.2036 13.1658C72.0243 13.5933 72.6692 14.2202 73.1383 15.0466C73.6366 15.8446 73.8711 16.7565 73.8711 17.8109ZM70.9984 17.0415C70.9984 16.3575 70.7345 15.7876 70.2362 15.3886C69.7379 14.9612 69.1223 14.7617 68.3894 14.7617C67.7152 14.7617 67.1289 14.9612 66.6599 15.3886C66.1909 15.7876 65.927 16.3575 65.8098 17.07H70.9984V17.0415Z" fill="black"/>
<path d="M75.1899 18.0388C75.1899 16.9274 75.4245 15.9585 75.8935 15.1606C76.3625 14.3342 77.0074 13.6787 77.8282 13.2228C78.649 12.7668 79.587 12.5388 80.6423 12.5388C81.9908 12.5388 83.134 12.8808 84.0134 13.5363C84.9222 14.1917 85.5084 15.1036 85.8016 16.3005H82.8116C82.665 15.8445 82.3718 15.4741 81.9908 15.2176C81.6097 14.9611 81.17 14.8186 80.613 14.8186C79.8215 14.8186 79.2059 15.1036 78.7369 15.6736C78.2679 16.215 78.0334 17.0129 78.0334 18.0388C78.0334 19.0648 78.2679 19.8342 78.7369 20.4041C79.2059 20.9456 79.8215 21.2306 80.613 21.2306C81.7269 21.2306 82.4598 20.7461 82.8116 19.7772H85.8016C85.5084 20.9456 84.8928 21.8575 84.0134 22.5414C83.1047 23.2254 81.9908 23.5673 80.6423 23.5673C79.587 23.5673 78.649 23.3394 77.8282 22.8834C77.0074 22.4274 76.3625 21.772 75.8935 20.9456C75.4245 20.1192 75.1899 19.1502 75.1899 18.0388Z" fill="black"/>
<path d="M97.9966 17.8109C97.9966 18.2099 97.9673 18.5518 97.9086 18.8368H89.906C89.9646 19.6062 90.2577 20.2047 90.7267 20.6606C91.2251 21.0881 91.8114 21.3161 92.5149 21.3161C93.5409 21.3161 94.2737 20.8886 94.7134 20.0337H97.7034C97.381 21.0596 96.7654 21.9145 95.886 22.57C94.9773 23.2254 93.8926 23.5389 92.5735 23.5389C91.5182 23.5389 90.5802 23.3109 89.7301 22.8549C88.9093 22.399 88.2351 21.7435 87.766 20.9171C87.297 20.0907 87.0625 19.1218 87.0625 18.0389C87.0625 16.9275 87.297 15.9586 87.766 15.1321C88.2351 14.3057 88.88 13.6503 89.7008 13.1943C90.5215 12.7384 91.4889 12.5104 92.5735 12.5104C93.6288 12.5104 94.5375 12.7384 95.3583 13.1658C96.1791 13.5933 96.824 14.2202 97.2931 15.0466C97.7914 15.8446 97.9966 16.7565 97.9966 17.8109ZM95.1238 17.0415C95.1238 16.3575 94.86 15.7876 94.3617 15.3886C93.8633 14.9612 93.2477 14.7617 92.5149 14.7617C91.8407 14.7617 91.2544 14.9612 90.7854 15.3886C90.3163 15.7876 90.0525 16.3575 89.9353 17.07H95.1238V17.0415Z" fill="black"/>
<path d="M106.116 12.5388C107.435 12.5388 108.491 12.9378 109.282 13.7642C110.074 14.5622 110.484 15.6736 110.484 17.1269V23.3964H107.699V17.4689C107.699 16.614 107.494 15.987 107.054 15.5311C106.615 15.0751 106.028 14.8471 105.266 14.8471C104.504 14.8471 103.888 15.0751 103.449 15.5311C103.009 15.987 102.804 16.6425 102.804 17.4689V23.3679H100.019V12.7098H102.804V14.0492C103.185 13.5932 103.654 13.2228 104.211 12.9663C104.797 12.6813 105.413 12.5388 106.116 12.5388Z" fill="black"/>
<path d="M116.347 14.9326V20.0907C116.347 20.4611 116.435 20.7176 116.611 20.8886C116.787 21.0311 117.109 21.1166 117.52 21.1166H118.809V23.3964H117.08C114.735 23.3964 113.562 22.285 113.562 20.0907V14.9611H112.243V12.7383H113.562V10.0596H116.347V12.7098H118.809V14.9326H116.347Z" fill="black"/>
<path d="M123.588 14.3627C123.939 13.7927 124.408 13.3653 124.965 13.0233C125.552 12.7098 126.196 12.5388 126.959 12.5388V15.3601H126.226C125.346 15.3601 124.701 15.5596 124.232 15.9585C123.793 16.3575 123.588 17.0414 123.588 18.0388V23.3394H120.803V12.6813H123.588V14.3627Z" fill="black"/>
<path d="M128.102 18.0104C128.102 16.9275 128.307 15.9871 128.746 15.1321C129.186 14.3057 129.802 13.6503 130.535 13.1943C131.297 12.7384 132.147 12.5104 133.085 12.5104C133.906 12.5104 134.609 12.6814 135.225 12.9948C135.84 13.3083 136.339 13.7073 136.72 14.2202V12.7099H139.505V23.3679H136.72V21.8005C136.368 22.3135 135.87 22.7124 135.225 23.0544C134.609 23.3679 133.876 23.5389 133.056 23.5389C132.118 23.5389 131.297 23.3109 130.535 22.8549C129.772 22.399 129.186 21.7435 128.746 20.9171C128.307 20.0622 128.102 19.0933 128.102 18.0104ZM136.749 18.0389C136.749 17.3834 136.603 16.8135 136.339 16.3575C136.075 15.8731 135.723 15.5311 135.283 15.2746C134.844 15.0181 134.345 14.8757 133.847 14.8757C133.319 14.8757 132.85 14.9897 132.411 15.2461C131.971 15.5026 131.619 15.8446 131.355 16.329C131.092 16.785 130.945 17.3549 130.945 17.9819C130.945 18.6088 131.092 19.1788 131.355 19.6632C131.619 20.1477 132 20.5181 132.411 20.7746C132.85 21.0311 133.349 21.1736 133.847 21.1736C134.375 21.1736 134.844 21.0596 135.283 20.8031C135.723 20.5466 136.075 20.1762 136.339 19.7202C136.603 19.2643 136.749 18.6943 136.749 18.0389Z" fill="black"/>
<path d="M145.016 9.11917V23.3679H142.231V9.11917H145.016Z" fill="black"/>
<path d="M147.039 18.0104C147.039 16.9275 147.244 15.9871 147.683 15.1321C148.123 14.3057 148.739 13.6503 149.472 13.1943C150.234 12.7384 151.084 12.5104 152.022 12.5104C152.843 12.5104 153.546 12.6814 154.162 12.9948C154.777 13.3083 155.276 13.7073 155.657 14.2202V12.7099H158.442V23.3679H155.657V21.8005C155.305 22.3135 154.807 22.7124 154.162 23.0544C153.546 23.3679 152.813 23.5389 151.993 23.5389C151.055 23.5389 150.234 23.3109 149.472 22.8549C148.709 22.399 148.123 21.7435 147.683 20.9171C147.244 20.0622 147.039 19.0933 147.039 18.0104ZM155.686 18.0389C155.686 17.3834 155.54 16.8135 155.276 16.3575C155.012 15.8731 154.66 15.5311 154.22 15.2746C153.781 15.0181 153.282 14.8757 152.784 14.8757C152.256 14.8757 151.787 14.9897 151.348 15.2461C150.908 15.5026 150.556 15.8446 150.292 16.329C150.029 16.785 149.882 17.3549 149.882 17.9819C149.882 18.6088 149.999 19.1788 150.292 19.6632C150.556 20.1477 150.937 20.5181 151.348 20.7746C151.787 21.0311 152.286 21.1736 152.784 21.1736C153.312 21.1736 153.781 21.0596 154.22 20.8031C154.66 20.5466 155.012 20.1762 155.276 19.7202C155.54 19.2643 155.686 18.6943 155.686 18.0389Z" fill="black"/>
<path d="M167.265 12.5388C168.584 12.5388 169.64 12.9378 170.431 13.7642C171.223 14.5622 171.633 15.6736 171.633 17.1269V23.3964H168.848V17.4689C168.848 16.614 168.643 15.987 168.203 15.5311C167.764 15.0751 167.177 14.8471 166.415 14.8471C165.653 14.8471 165.037 15.0751 164.598 15.5311C164.158 15.987 163.953 16.6425 163.953 17.4689V23.3679H161.168V12.7098H163.953V14.0492C164.334 13.5932 164.803 13.2228 165.36 12.9663C165.946 12.6813 166.562 12.5388 167.265 12.5388Z" fill="black"/>
<path d="M173.567 18.0104C173.567 16.9275 173.773 15.987 174.212 15.1321C174.652 14.3057 175.268 13.6503 176.03 13.1943C176.792 12.7383 177.642 12.5104 178.58 12.5104C179.284 12.5104 179.958 12.6528 180.632 12.9663C181.277 13.2513 181.805 13.6502 182.186 14.1632V9.09067H185V23.3394H182.186V21.772C181.834 22.285 181.365 22.7124 180.749 23.0544C180.134 23.3679 179.401 23.5388 178.58 23.5388C177.642 23.5388 176.821 23.3109 176.059 22.8549C175.297 22.399 174.681 21.7435 174.242 20.9171C173.773 20.0622 173.567 19.0933 173.567 18.0104ZM182.186 18.0389C182.186 17.3834 182.039 16.8135 181.775 16.3575C181.511 15.8731 181.16 15.5311 180.72 15.2746C180.28 15.0181 179.782 14.8756 179.284 14.8756C178.785 14.8756 178.287 14.9896 177.847 15.2461C177.407 15.5026 177.056 15.8446 176.792 16.329C176.528 16.785 176.382 17.3549 176.382 17.9819C176.382 18.6088 176.499 19.1788 176.792 19.6632C177.056 20.1477 177.437 20.5181 177.847 20.7746C178.287 21.0311 178.785 21.1736 179.284 21.1736C179.811 21.1736 180.28 21.0596 180.72 20.8031C181.16 20.5466 181.511 20.1762 181.775 19.7202C182.068 19.2642 182.186 18.6943 182.186 18.0389Z" fill="black"/>
<defs>
<linearGradient id="paint0_linear_5_1957" x1="28.4638" y1="4.97277" x2="5.73001" y2="28.6616" gradientUnits="userSpaceOnUse">
<stop stop-color="#FF2D55"/>
<stop offset="1" stop-color="#FFBC5B"/>
</linearGradient>
<linearGradient id="paint1_linear_5_1957" x1="16.5585" y1="10.9947" x2="16.5585" y2="23.3728" gradientUnits="userSpaceOnUse">
<stop stop-color="#A524B3"/>
<stop offset="1" stop-color="#FF2D55"/>
</linearGradient>
<linearGradient id="paint2_linear_5_1957" x1="26.4811" y1="17.5963" x2="26.4811" y2="26.6736" gradientUnits="userSpaceOnUse">
<stop stop-color="#A524B3"/>
<stop offset="1" stop-color="#FF2D55"/>
</linearGradient>
</defs>
</svg>
