<svg viewBox="0 0 170 33" fill="none" xmlns="http://www.w3.org/2000/svg">
<path d="M45.0486 24.5666V7.3153H49.7067V20.7874H62.2998V24.5666H45.0486ZM76.0456 21.3022H66.4281L64.8084 24.5666H59.6105L68.6379 7.3153H73.8359L82.8633 24.5666H77.6653L76.0456 21.3022ZM68.098 17.9373H74.4009L71.262 11.5842L68.098 17.9373ZM98.1283 24.5666L86.4893 12.7142V24.5666H81.8312V7.3153H86.8911L98.5426 19.2179V7.3153H103.176V24.5666H98.1283ZM125.848 15.9284C125.848 17.0333 125.727 18.0168 125.484 18.8789C125.242 19.7327 124.898 20.4777 124.455 21.1138C124.019 21.75 123.492 22.2899 122.873 22.7335C122.262 23.1771 121.579 23.5329 120.826 23.8007C120.073 24.0686 119.261 24.2653 118.39 24.3908C117.52 24.508 116.612 24.5666 115.666 24.5666H104.717V7.3153H115.641C116.587 7.3153 117.495 7.37808 118.365 7.50364C119.236 7.62082 120.048 7.81334 120.801 8.08119C121.563 8.34904 122.253 8.70478 122.873 9.14841C123.492 9.58367 124.019 10.1236 124.455 10.7681C124.898 11.4042 125.242 12.1492 125.484 13.003C125.727 13.8567 125.848 14.8319 125.848 15.9284ZM121.153 15.9284C121.153 15.0997 121.044 14.3799 120.826 13.7688C120.617 13.1578 120.274 12.6556 119.797 12.2622C119.328 11.8604 118.713 11.5633 117.951 11.3707C117.189 11.1698 116.26 11.0694 115.164 11.0694H109.376V20.8125H115.164C116.26 20.8125 117.189 20.7162 117.951 20.5237C118.713 20.3228 119.328 20.0215 119.797 19.6197C120.274 19.2096 120.617 18.699 120.826 18.0879C121.044 17.4769 121.153 16.7571 121.153 15.9284ZM126.248 24.5666V7.3153H130.906V24.5666H126.248ZM137.118 10.9941V13.9948H148.33V17.6736H137.118V24.5666H132.46V7.3153H148.945V10.9941H137.118ZM159.891 17.5229V24.5666H155.246V17.5229L146.884 7.3153H152.107L157.581 14.2585L163.03 7.3153H168.253L159.891 17.5229Z" fill="#252235"/>
<path d="M26.9492 24.3827H14.1162C13.407 24.3822 12.8325 23.807 12.833 23.0979C12.8332 22.8578 12.9006 22.6226 13.0277 22.4189L19.4442 12.1525C19.871 11.5514 20.7043 11.4101 21.3055 11.8369C21.4276 11.9236 21.5343 12.0303 21.6211 12.1525L28.0376 22.4189C28.413 23.0205 28.2297 23.8126 27.6281 24.188C27.4245 24.3151 27.1892 24.3826 26.9492 24.3827Z" fill="#B2B1FF"/>
<path d="M12.833 23.0979C12.8331 22.8578 12.9006 22.6226 13.0277 22.4189L18.1363 14.2452L13.9413 7.05315C13.7114 6.65877 13.2893 6.41635 12.8328 6.4165C12.3763 6.41635 11.9542 6.65877 11.7243 7.05314L2.74123 22.4528C2.62672 22.649 2.56641 22.8722 2.56641 23.0994C2.56641 23.8082 3.14093 24.3827 3.84971 24.3827H14.1161C13.407 24.3822 12.8325 23.807 12.833 23.0979Z" fill="#6563FF"/>
</svg>
