<svg viewBox="0 0 102 19" fill="none" xmlns="http://www.w3.org/2000/svg">
<g clip-path="url(#clip0_5_1973)">
<path d="M12.2972 12.3257L15.2333 17.7362H9.7856L7.30659 13.1124H4.95804V17.7362H0V1.34575H9.06799C12.8191 1.34575 15.2007 3.44202 15.2007 7.21185C15.2007 9.63765 14.0916 11.3754 12.2972 12.3257ZM4.95804 5.60556V8.85089H8.48085C9.52466 8.85089 10.177 8.22805 10.177 7.21185C10.177 6.19563 9.52466 5.60556 8.48085 5.60556H4.95804ZM30.9881 18.9479L16.1466 14.9158L20.1261 0L27.5468 2.01604L34.9675 4.03207L30.9881 18.9479ZM28.1829 7.9658L24.0403 6.81847L22.9313 10.9817L27.0739 12.1294L28.1829 7.9658ZM51.9622 13.1124C51.9622 16.2594 49.9725 17.7362 46.8737 17.7362H37.1534V1.34575H46.5476C49.6463 1.34575 51.6361 2.95202 51.6361 5.7712C51.6361 7.54138 50.9837 8.72185 49.7441 9.54138C51.1468 10.1621 51.9622 11.4082 51.9622 13.1124ZM41.9809 5.27948V7.70528H45.2084C46.0892 7.70528 46.6111 7.31191 46.6111 6.4596C46.6111 5.67286 46.0892 5.27948 45.2084 5.27948H41.9809ZM41.9809 13.8026H45.6017C46.4497 13.8026 46.9407 13.3436 46.9407 12.5565C46.9407 11.7046 46.4514 11.3112 45.6017 11.3112H41.9809V13.8026ZM54.4087 1.34575H59.366V12.8833H66.4768V17.7362H54.4079L54.4087 1.34575ZM84.7118 9.54138C84.7118 11.2271 84.2144 12.8749 83.2825 14.2766C82.3506 15.6782 81.026 16.7706 79.4764 17.4157C77.9267 18.0608 76.2215 18.2296 74.5764 17.9007C72.9313 17.5718 71.4201 16.7601 70.234 15.5681C69.048 14.3761 68.2402 12.8575 67.913 11.2041C67.5857 9.55083 67.7538 7.83711 68.3956 6.27973C69.0375 4.72233 70.1245 3.39122 71.5192 2.45468C72.9138 1.51815 74.5536 1.01828 76.2308 1.01828C77.3451 1.01606 78.4487 1.23494 79.4787 1.66236C80.5085 2.08979 81.4442 2.71736 82.2321 3.50906C83.0201 4.30077 83.6447 5.24102 84.0702 6.27589C84.4958 7.31078 84.7137 8.4199 84.7118 9.53964V9.54138ZM79.7537 9.54138C79.7537 7.50859 78.1553 5.90232 76.2308 5.90232C74.3064 5.90232 72.7078 7.50859 72.7078 9.54138C72.7078 11.5741 74.3064 13.1801 76.2308 13.1801C78.1553 13.1801 79.7537 11.5717 79.7537 9.53964V9.54138ZM96.6502 9.27878L102 17.7362H96.0943L93.16 12.9158L90.1264 17.7362H84.1246L89.7024 9.47512L84.5813 1.34575H90.4852L93.1926 5.7712L95.8021 1.34575H101.673L96.6502 9.27878Z" fill="#1D1D1B"/>
</g>
<defs>
<clipPath id="clip0_5_1973">
<rect width="102" height="19" fill="white"/>
</clipPath>
</defs>
</svg>
