<svg viewBox="0 0 121 36" fill="none" xmlns="http://www.w3.org/2000/svg">
<path d="M61.4734 4.96062H63.2822V4.52211L62.8163 4.05621H60.5689L60.103 4.52211V8.13983L60.5689 8.57833H62.8163L63.2822 8.13983V7.70129H61.4734V6.79689H63.2822V5.89245H61.4734V4.96062Z" fill="#1D1D1B"/>
<path d="M62.9805 0H60.4316V2.54884H62.9805V0Z" fill="#1D1D1B"/>
<path d="M58.0199 4.05621V5.86505H56.677V4.05621H55.7726L55.3066 4.52211V8.13982L55.7726 8.57832H56.677V6.76948H58.0199V8.57832H58.9243L59.3628 8.13982V4.49471L58.9243 4.02881H58.0199V4.05621Z" fill="#1D1D1B"/>
<path d="M50.9493 4.05621L50.4834 4.52211V4.96062H51.8263V8.11239L52.2922 8.55093H52.7308L53.1693 8.11239V4.96062H54.5122V4.52211L54.0737 4.05621H50.9493Z" fill="#1D1D1B"/>
<path d="M1.80885 10.1131L0 11.9219V19.1573L1.80885 20.9662H9.04423V24.5839H5.42654V22.775H0V26.3927L1.80885 28.2016H12.6345L14.4434 26.3927V19.1573L12.6345 17.3485H5.42654V13.7308H9.04423V15.5396H14.4708V11.9219L12.6619 10.1131H1.80885Z" fill="#1D1D1B"/>
<path d="M50.5654 10.1131V28.1742H63.1999L65.0088 26.3653V11.9219L63.1999 10.1131H50.5654ZM55.992 13.7308H59.6097V24.5564H55.992V13.7308Z" fill="#1D1D1B"/>
<path d="M66.8179 10.1131V28.1742H79.4524L81.2612 26.3653V20.9388L79.4524 19.1299L81.2612 17.3211V11.8945L79.4524 10.0857L66.8179 10.1131ZM72.2444 20.9662H75.8621V24.5839H72.2444V20.9662ZM72.2444 17.3485V13.7308H75.8621V17.3485H72.2444Z" fill="#1D1D1B"/>
<path d="M84.8787 10.1131L83.0698 11.9219V26.3653L84.8787 28.1742H95.7043L97.5132 26.3653V11.9219L95.7043 10.1131H84.8787ZM88.4964 13.7308H92.1141V24.5564H88.4964V13.7308Z" fill="#1D1D1B"/>
<path d="M117.191 15.7338L113.78 19.1445L117.191 22.5553L120.601 19.1445L117.191 15.7338Z" fill="#1D1D1B"/>
<path d="M23.2648 29.1785L19.854 32.5892L23.2648 36L26.6755 32.5893L23.2648 29.1785Z" fill="#1D1D1B"/>
<path d="M108.366 10.1131V15.5396L106.558 17.3485L104.749 15.5396V10.1131H101.131L99.3223 11.9219V17.3485L101.131 19.1573L99.3223 20.9662V26.3927L101.131 28.2016H104.749V22.775L106.558 20.9662L108.366 22.775V28.2016H111.984L113.793 26.3927V20.9662L111.984 19.1573L113.793 17.3485V11.9219L111.984 10.1131H108.366Z" fill="#1D1D1B"/>
<path d="M43.3301 10.1131V15.5396L37.9036 10.1131H34.2859L32.4771 11.9219V26.3653L34.2859 28.1742H37.9036V17.3485L43.3301 22.775V28.2016H46.9478L48.7567 26.3927V11.9493L46.9478 10.1405H43.3301V10.1131Z" fill="#1D1D1B"/>
<path d="M28.8865 10.1679H18.0608L16.252 11.9768V26.4201L18.0608 28.2289H21.6785V20.9935H25.2962V28.2289H28.9139L30.7227 26.4201V11.9768L28.8865 10.1679ZM23.4873 18.0336L21.1852 15.7315L23.4873 13.4293L25.7895 15.7315L23.4873 18.0336Z" fill="#1D1D1B"/>
</svg>
